<svg width="45" height="45" viewBox="0 0 45 45" fill="none" xmlns="http://www.w3.org/2000/svg">
<g clip-path="url(#clip0)">
<path d="M41.25 5.00006H3.75C1.67969 5.00006 0 6.67975 0 8.75006V36.2501C0 38.3204 1.67969 40.0001 3.75 40.0001H41.25C43.3203 40.0001 45 38.3204 45 36.2501V8.75006C45 6.67975 43.3203 5.00006 41.25 5.00006ZM13.75 12.5001C16.5078 12.5001 18.75 14.7422 18.75 17.5001C18.75 20.2579 16.5078 22.5001 13.75 22.5001C10.9922 22.5001 8.75 20.2579 8.75 17.5001C8.75 14.7422 10.9922 12.5001 13.75 12.5001ZM22.5 31.0001C22.5 31.8282 21.7188 32.5001 20.75 32.5001H6.75C5.78125 32.5001 5 31.8282 5 31.0001V29.5001C5 27.0157 7.35156 25.0001 10.25 25.0001H10.6406C11.6016 25.3985 12.6484 25.6251 13.75 25.6251C14.8516 25.6251 15.9062 25.3985 16.8594 25.0001H17.25C20.1484 25.0001 22.5 27.0157 22.5 29.5001V31.0001ZM40 26.8751C40 27.2188 39.7188 27.5001 39.375 27.5001H28.125C27.7812 27.5001 27.5 27.2188 27.5 26.8751V25.6251C27.5 25.2813 27.7812 25.0001 28.125 25.0001H39.375C39.7188 25.0001 40 25.2813 40 25.6251V26.8751ZM40 21.8751C40 22.2188 39.7188 22.5001 39.375 22.5001H28.125C27.7812 22.5001 27.5 22.2188 27.5 21.8751V20.6251C27.5 20.2813 27.7812 20.0001 28.125 20.0001H39.375C39.7188 20.0001 40 20.2813 40 20.6251V21.8751ZM40 16.8751C40 17.2188 39.7188 17.5001 39.375 17.5001H28.125C27.7812 17.5001 27.5 17.2188 27.5 16.8751V15.6251C27.5 15.2813 27.7812 15.0001 28.125 15.0001H39.375C39.7188 15.0001 40 15.2813 40 15.6251V16.8751Z" fill="#2F2E30"/>
</g>
<defs>
<clipPath id="clip0">
<rect width="45" height="45" fill="white"/>
</clipPath>
</defs>
</svg>
