<svg width="45" height="45" viewBox="0 0 45 45" fill="none" xmlns="http://www.w3.org/2000/svg">
<g clip-path="url(#clip0)">
<path d="M41.25 5H3.75C1.67969 5 0 6.67969 0 8.75V36.25C0 38.3203 1.67969 40 3.75 40H41.25C43.3203 40 45 38.3203 45 36.25V8.75C45 6.67969 43.3203 5 41.25 5ZM13.75 12.5C16.5078 12.5 18.75 14.7422 18.75 17.5C18.75 20.2578 16.5078 22.5 13.75 22.5C10.9922 22.5 8.75 20.2578 8.75 17.5C8.75 14.7422 10.9922 12.5 13.75 12.5ZM22.5 31C22.5 31.8281 21.7188 32.5 20.75 32.5H6.75C5.78125 32.5 5 31.8281 5 31V29.5C5 27.0156 7.35156 25 10.25 25H10.6406C11.6016 25.3984 12.6484 25.625 13.75 25.625C14.8516 25.625 15.9062 25.3984 16.8594 25H17.25C20.1484 25 22.5 27.0156 22.5 29.5V31ZM40 26.875C40 27.2188 39.7188 27.5 39.375 27.5H28.125C27.7812 27.5 27.5 27.2188 27.5 26.875V25.625C27.5 25.2812 27.7812 25 28.125 25H39.375C39.7188 25 40 25.2812 40 25.625V26.875ZM40 21.875C40 22.2188 39.7188 22.5 39.375 22.5H28.125C27.7812 22.5 27.5 22.2188 27.5 21.875V20.625C27.5 20.2812 27.7812 20 28.125 20H39.375C39.7188 20 40 20.2812 40 20.625V21.875ZM40 16.875C40 17.2188 39.7188 17.5 39.375 17.5H28.125C27.7812 17.5 27.5 17.2188 27.5 16.875V15.625C27.5 15.2812 27.7812 15 28.125 15H39.375C39.7188 15 40 15.2812 40 15.625V16.875Z" fill="#DEA745"/>
</g>
<defs>
<clipPath id="clip0">
<rect width="45" height="45" fill="white"/>
</clipPath>
</defs>
</svg>
