<svg width="45" height="45" viewBox="0 0 45 45" fill="none" xmlns="http://www.w3.org/2000/svg">
<path d="M30.2783 14.0625C29.0039 6.21387 25.998 0.703125 22.5 0.703125C19.002 0.703125 15.9961 6.21387 14.7217 14.0625H30.2783ZM14.0625 22.5C14.0625 24.4512 14.168 26.3232 14.3525 28.125H30.6387C30.8232 26.3232 30.9287 24.4512 30.9287 22.5C30.9287 20.5488 30.8232 18.6768 30.6387 16.875H14.3525C14.168 18.6768 14.0625 20.5488 14.0625 22.5ZM42.6006 14.0625C40.0869 8.09473 34.998 3.48047 28.7139 1.61719C30.8584 4.58789 32.335 9.06152 33.1084 14.0625H42.6006ZM16.2773 1.61719C10.002 3.48047 4.9043 8.09473 2.39941 14.0625H11.8916C12.6563 9.06152 14.1328 4.58789 16.2773 1.61719V1.61719ZM43.541 16.875H33.46C33.6445 18.7207 33.75 20.6104 33.75 22.5C33.75 24.3896 33.6445 26.2793 33.46 28.125H43.5322C44.0156 26.3232 44.2881 24.4512 44.2881 22.5C44.2881 20.5488 44.0156 18.6768 43.541 16.875ZM11.25 22.5C11.25 20.6104 11.3555 18.7207 11.54 16.875H1.45898C0.984375 18.6768 0.703125 20.5488 0.703125 22.5C0.703125 24.4512 0.984375 26.3232 1.45898 28.125H11.5312C11.3555 26.2793 11.25 24.3896 11.25 22.5V22.5ZM14.7217 30.9375C15.9961 38.7861 19.002 44.2969 22.5 44.2969C25.998 44.2969 29.0039 38.7861 30.2783 30.9375H14.7217ZM28.7227 43.3828C34.998 41.5195 40.0957 36.9053 42.6094 30.9375H33.1172C32.3437 35.9385 30.8672 40.4121 28.7227 43.3828ZM2.39941 30.9375C4.91309 36.9053 10.002 41.5195 16.2861 43.3828C14.1416 40.4121 12.665 35.9385 11.8916 30.9375H2.39941V30.9375Z" fill="#DEA745"/>
</svg>
