<svg width="45" height="45" viewBox="0 0 45 45" fill="none" xmlns="http://www.w3.org/2000/svg">
<path d="M30.7235 8.68207C26.0137 8.68207 22.1239 5.62497 16.2025 5.62497C14.0092 5.62497 12.0444 6.01028 10.2219 6.6808C10.4745 6.02116 10.582 5.31484 10.5371 4.60992C10.3814 2.11066 8.33256 0.105965 5.83049 0.00418779C3.0186 -0.110246 0.703125 2.13536 0.703125 4.92184C0.703125 6.59405 1.53782 8.07053 2.8125 8.95998V42.8906C2.8125 44.0556 3.75688 45 4.92188 45H6.32812C7.49312 45 8.4375 44.0556 8.4375 42.8906V34.5937C10.9258 33.5334 14.0258 32.6494 18.4953 32.6494C23.2051 32.6494 27.0948 35.7065 33.0163 35.7065C37.2499 35.7065 40.6335 34.2744 43.7833 32.1155C44.5465 31.5924 45 30.724 45 29.7988V8.43264C45 6.37661 42.867 5.01633 41.0023 5.8824C37.9843 7.28408 34.2827 8.68207 30.7235 8.68207Z" fill="#DEA745"/>
</svg>
