<svg width="34" height="45" viewBox="0 0 34 45" fill="none" xmlns="http://www.w3.org/2000/svg">
<path d="M9.27852 39.9323C9.27949 40.4852 9.45915 41.0266 9.79625 41.4871L11.447 43.7449C11.729 44.1309 12.1115 44.4475 12.5604 44.6664C13.0093 44.8854 13.5108 45 14.0202 45H19.9808C20.4902 45 20.9916 44.8854 21.4406 44.6664C21.8895 44.4475 22.272 44.1309 22.554 43.7449L24.2047 41.4871C24.5417 41.0265 24.7218 40.4856 24.7224 39.9323L24.7263 36.5618H9.27369L9.27852 39.9323ZM0 15.4685C0 19.3681 1.58892 22.9259 4.2075 25.6443C5.80318 27.301 8.29909 30.762 9.25051 33.6817C9.25438 33.7045 9.25727 33.7274 9.26114 33.7502H24.7389C24.7427 33.7274 24.7456 33.7054 24.7495 33.6817C25.7009 30.762 28.1968 27.301 29.7925 25.6443C32.4111 22.9259 34 19.3681 34 15.4685C34 6.90901 26.3606 -0.0262917 16.9469 7.4932e-05C7.09364 0.0273204 0 7.29221 0 15.4685ZM17 8.4374C12.7394 8.4374 9.27273 11.5917 9.27273 15.4685C9.27273 16.2454 8.58114 16.8747 7.72727 16.8747C6.87341 16.8747 6.18182 16.2454 6.18182 15.4685C6.18182 10.0405 11.0345 5.62496 17 5.62496C17.8539 5.62496 18.5455 6.25424 18.5455 7.03118C18.5455 7.80811 17.8539 8.4374 17 8.4374Z" fill="#2F2E30"/>
</svg>
