<svg width="64" height="64" viewBox="0 0 64 64" fill="none" xmlns="http://www.w3.org/2000/svg">
<path d="M62.2857 20C63.2324 20 64 19.3284 64 18.5V13.5C64 12.6716 63.2324 12 62.2857 12H59.4286V6C59.4286 2.68625 56.3586 0 52.5714 0H6.85714C3.07 0 0 2.68625 0 6V58C0 61.3138 3.07 64 6.85714 64H52.5714C56.3586 64 59.4286 61.3138 59.4286 58V52H62.2857C63.2324 52 64 51.3284 64 50.5V45.5C64 44.6716 63.2324 44 62.2857 44H59.4286V36H62.2857C63.2324 36 64 35.3284 64 34.5V29.5C64 28.6716 63.2324 28 62.2857 28H59.4286V20H62.2857ZM51.7143 58H7.71429C7.48696 58 7.26894 57.921 7.10819 57.7803C6.94745 57.6397 6.85714 57.4489 6.85714 57.25V6.75C6.85714 6.55109 6.94745 6.36032 7.10819 6.21967C7.26894 6.07902 7.48696 6 7.71429 6H51.7143C51.9416 6 52.1596 6.07902 52.3204 6.21967C52.4811 6.36032 52.5714 6.55109 52.5714 6.75V57.25C52.5714 57.4489 52.4811 57.6397 52.3204 57.7803C52.1596 57.921 51.9416 58 51.7143 58ZM18.2857 26C18.2857 20.4771 23.4024 16 29.7143 16C36.0261 16 41.1429 20.4771 41.1429 26C41.1429 31.5229 36.0261 36 29.7143 36C23.4024 36 18.2857 31.5229 18.2857 26ZM48 42.6846V45C48 46.6569 46.465 48 44.5714 48H14.8571C12.9636 48 11.4286 46.6569 11.4286 45V42.6846C11.4286 39.9314 13.57 37.5315 16.6226 36.8638L21.7164 35.7495C25.8737 38.366 32.3606 39.1176 37.7121 35.7495L42.806 36.8638C45.8586 37.5315 48 39.9315 48 42.6846Z" fill="black"/>
</svg>
