<svg width="64" height="64" viewBox="0 0 64 64" fill="none" xmlns="http://www.w3.org/2000/svg">
<g clip-path="url(#clip0)">
<path d="M61.6749 3.07736L48.6749 0.0777324C47.2607 -0.248643 45.8151 0.484232 45.2429 1.81911L39.2429 15.8187C38.9867 16.4168 38.9317 17.0819 39.0864 17.7139C39.2412 18.3458 39.5971 18.9104 40.1007 19.3224L47.6778 25.5219C43.1812 35.1062 35.3106 43.0854 25.5217 47.6779L19.3222 40.1009C18.9102 39.5973 18.3457 39.2413 17.7137 39.0866C17.0817 38.9319 16.4166 38.9868 15.8186 39.2431L1.81894 45.2431C0.484443 45.815 -0.248933 47.2605 0.0775675 48.6751L3.07719 61.6751C3.38894 63.026 4.59382 64.0005 6.00032 64.0005C38.0112 64.0005 64.0003 38.059 64.0003 6.00048C64.0003 4.60348 63.0361 3.39136 61.6749 3.07736Z" fill="black"/>
</g>
<defs>
<clipPath id="clip0">
<rect width="64" height="64" fill="white"/>
</clipPath>
</defs>
</svg>
