<svg width="64" height="56" viewBox="0 0 64 56" fill="none" xmlns="http://www.w3.org/2000/svg">
<rect width="64" height="55.5" rx="10" fill="#343537"/>
<path d="M45.8125 40.5H18.1875C16.4271 40.5 15 39.0729 15 37.3125V18.1875C15 16.4271 16.4271 15 18.1875 15H45.8125C47.5729 15 49 16.4271 49 18.1875V37.3125C49 39.0729 47.5729 40.5 45.8125 40.5ZM22.4375 18.7188C20.3837 18.7188 18.7188 20.3837 18.7188 22.4375C18.7188 24.4913 20.3837 26.1562 22.4375 26.1562C24.4913 26.1562 26.1562 24.4913 26.1562 22.4375C26.1562 20.3837 24.4913 18.7188 22.4375 18.7188ZM19.25 36.25H44.75V28.8125L38.9385 23.001C38.6273 22.6898 38.1227 22.6898 37.8115 23.001L28.8125 32L25.126 28.3135C24.8148 28.0023 24.3102 28.0023 23.999 28.3135L19.25 33.0625V36.25Z" fill="#DEA745"/>
</svg>
