<svg width="45" height="45" viewBox="0 0 45 45" fill="none" xmlns="http://www.w3.org/2000/svg">
<path d="M43.875 33.75H26.827C26.775 35.1429 25.7927 36 24.525 36H20.25C18.9359 36 17.9283 34.7716 17.9459 33.75H1.125C0.50625 33.75 0 34.2563 0 34.875V36C0 38.475 2.025 40.5 4.5 40.5H40.5C42.975 40.5 45 38.475 45 36V34.875C45 34.2563 44.4938 33.75 43.875 33.75ZM40.5 7.875C40.5 6.01875 38.9813 4.5 37.125 4.5H7.875C6.01875 4.5 4.5 6.01875 4.5 7.875V31.5H40.5V7.875ZM36 27H9V9H36V27Z" fill="#2F2E30"/>
</svg>
