<svg width="31" height="21" viewBox="0 0 31 21" fill="none" xmlns="http://www.w3.org/2000/svg">
<path d="M1.98061 3.80732H29.8377C30.4295 3.80732 30.9092 3.42855 30.9092 2.96125V0.846071C30.9092 0.378776 30.4295 0 29.8377 0H1.98061C1.38884 0 0.90918 0.378776 0.90918 0.846071V2.96125C0.90918 3.42855 1.38884 3.80732 1.98061 3.80732ZM1.98061 12.268H29.8377C30.4295 12.268 30.9092 11.8893 30.9092 11.422V9.30678C30.9092 8.83949 30.4295 8.46071 29.8377 8.46071H1.98061C1.38884 8.46071 0.90918 8.83949 0.90918 9.30678V11.422C0.90918 11.8893 1.38884 12.268 1.98061 12.268ZM1.98061 20.7287H29.8377C30.4295 20.7287 30.9092 20.35 30.9092 19.8827V17.7675C30.9092 17.3002 30.4295 16.9214 29.8377 16.9214H1.98061C1.38884 16.9214 0.90918 17.3002 0.90918 17.7675V19.8827C0.90918 20.35 1.38884 20.7287 1.98061 20.7287Z" fill="#DEA745"/>
</svg>
