<svg width="42" height="36" viewBox="0 0 42 36" fill="none" xmlns="http://www.w3.org/2000/svg">
<path d="M37.6828 8.97181C37.7095 9.36554 37.7095 9.75936 37.7095 10.1531C37.7095 22.1624 29.0484 35.9999 13.2183 35.9999C8.34138 35.9999 3.81094 34.5092 0 31.9218C0.692921 32.0061 1.3591 32.0343 2.07868 32.0343C6.10274 32.0343 9.80712 30.5999 12.7653 28.1531C8.98098 28.0687 5.80964 25.4531 4.71698 21.853C5.25002 21.9374 5.78298 21.9936 6.34268 21.9936C7.1155 21.9936 7.8884 21.8811 8.6079 21.6843C4.66374 20.8405 1.70552 17.1843 1.70552 12.7687V12.6562C2.85142 13.3312 4.18402 13.7531 5.59636 13.8093C3.27782 12.178 1.75884 9.39368 1.75884 6.24367C1.75884 4.5562 2.18516 3.00933 2.9314 1.65933C7.16874 7.1718 13.5381 10.7717 20.6802 11.1655C20.5469 10.4905 20.467 9.78749 20.467 9.08436C20.467 4.07807 24.3046 0 29.0749 0C31.5533 0 33.7918 1.09687 35.3642 2.86874C37.3096 2.47501 39.1751 1.7156 40.8274 0.675003C40.1878 2.78442 38.8287 4.55629 37.0432 5.68121C38.7754 5.48443 40.4544 4.97807 42 4.27502C40.8276 6.07494 39.3618 7.67799 37.6828 8.97181Z" fill="#2F2E30"/>
</svg>
