<svg width="36" height="36" viewBox="0 0 36 36" fill="none" xmlns="http://www.w3.org/2000/svg">
<path d="M12.0411 28.987C12.0411 29.1359 11.8742 29.255 11.6637 29.255C11.4242 29.2774 11.2573 29.1583 11.2573 28.987C11.2573 28.8382 11.4242 28.7191 11.6347 28.7191C11.8524 28.6967 12.0411 28.8158 12.0411 28.987ZM9.78387 28.6521C9.73306 28.8009 9.87823 28.9722 10.096 29.0168C10.2847 29.0913 10.5024 29.0168 10.546 28.8679C10.5895 28.7191 10.4516 28.5478 10.2339 28.4809C10.0452 28.4287 9.83468 28.5032 9.78387 28.6521ZM12.9919 28.5255C12.7815 28.5776 12.6363 28.7191 12.6581 28.8903C12.6798 29.0392 12.8685 29.1359 13.0863 29.0838C13.2968 29.0317 13.4419 28.8903 13.4202 28.7414C13.3984 28.6 13.2024 28.5032 12.9919 28.5255ZM17.7677 0C7.70081 0 0 7.83856 0 18.1634C0 26.4189 5.06613 33.4832 12.3024 35.9695C13.2315 36.1408 13.5581 35.5527 13.5581 35.0688C13.5581 34.6073 13.5363 32.0614 13.5363 30.4982C13.5363 30.4982 8.45565 31.6148 7.38871 28.2799C7.38871 28.2799 6.56129 26.1137 5.37097 25.5553C5.37097 25.5553 3.70887 24.3866 5.4871 24.409C5.4871 24.409 7.29435 24.5579 8.28871 26.3295C9.87823 29.2029 12.5419 28.3766 13.5798 27.8853C13.7468 26.6943 14.2185 25.868 14.7411 25.3767C10.6839 24.9152 6.59032 24.3122 6.59032 17.151C6.59032 15.1039 7.14194 14.0767 8.30323 12.7665C8.11452 12.2826 7.49758 10.2876 8.49193 7.71201C10.0089 7.22815 13.5 9.7219 13.5 9.7219C14.9516 9.30504 16.5121 9.08916 18.0581 9.08916C19.604 9.08916 21.1645 9.30504 22.6161 9.7219C22.6161 9.7219 26.1073 7.22071 27.6242 7.71201C28.6185 10.2951 28.0016 12.2826 27.8129 12.7665C28.9742 14.0841 29.6855 15.1114 29.6855 17.151C29.6855 24.3345 25.4105 24.9077 21.3532 25.3767C22.021 25.9648 22.5871 27.0814 22.5871 28.8307C22.5871 31.3394 22.5653 34.4435 22.5653 35.0539C22.5653 35.5378 22.8992 36.1259 23.821 35.9547C31.079 33.4832 36 26.4189 36 18.1634C36 7.83856 27.8347 0 17.7677 0ZM7.05484 25.6745C6.96048 25.7489 6.98226 25.9201 7.10565 26.0615C7.22177 26.1806 7.38871 26.2328 7.48306 26.136C7.57742 26.0615 7.55564 25.8903 7.43226 25.7489C7.31613 25.6298 7.14919 25.5777 7.05484 25.6745ZM6.27097 25.0715C6.22016 25.1683 6.29274 25.2874 6.4379 25.3618C6.55403 25.4362 6.69919 25.4139 6.75 25.3097C6.80081 25.2129 6.72823 25.0938 6.58306 25.0194C6.4379 24.9747 6.32177 24.997 6.27097 25.0715ZM8.62258 27.7216C8.50645 27.8183 8.55 28.0417 8.71694 28.1831C8.88387 28.3543 9.09435 28.3766 9.18871 28.2575C9.28306 28.1608 9.23952 27.9374 9.09435 27.796C8.93468 27.6248 8.71694 27.6025 8.62258 27.7216ZM7.79516 26.6273C7.67903 26.7017 7.67903 26.8953 7.79516 27.0665C7.91129 27.2377 8.10726 27.3121 8.20161 27.2377C8.31774 27.1409 8.31774 26.9474 8.20161 26.7762C8.1 26.605 7.91129 26.5305 7.79516 26.6273Z" fill="#2F2E30"/>
</svg>
