<svg width="36" height="36" viewBox="0 0 36 36" fill="none" xmlns="http://www.w3.org/2000/svg">
<path d="M8.05821 35.9999H0.594643V11.9646H8.05821V35.9999ZM4.32241 8.68597C1.9358 8.68597 0 6.70915 0 4.32249C1.70823e-08 3.1761 0.455396 2.07665 1.266 1.26603C2.07661 0.455404 3.17604 0 4.32241 0C5.46879 0 6.56821 0.455404 7.37882 1.26603C8.18943 2.07665 8.64482 3.1761 8.64482 4.32249C8.64482 6.70915 6.70821 8.68597 4.32241 8.68597ZM35.992 35.9999H28.5445V24.2997C28.5445 21.5112 28.4882 17.9353 24.664 17.9353C20.7836 17.9353 20.1889 20.9648 20.1889 24.0988V35.9999H12.7334V11.9646H19.8916V15.2432H19.9961C20.9925 13.3548 23.4265 11.3619 27.0579 11.3619C34.6114 11.3619 36 16.3361 36 22.797V35.9999H35.992Z" fill="#2F2E30"/>
</svg>
