<svg width="36" height="36" viewBox="0 0 36 36" fill="none" xmlns="http://www.w3.org/2000/svg">
<path d="M18.004 8.77003C12.8962 8.77003 8.77613 12.891 8.77613 17.9999C8.77613 23.1089 12.8962 27.2299 18.004 27.2299C23.1119 27.2299 27.2319 23.1089 27.2319 17.9999C27.2319 12.891 23.1119 8.77003 18.004 8.77003ZM18.004 24.0006C14.7032 24.0006 12.0047 21.3095 12.0047 17.9999C12.0047 14.6903 14.6951 11.9993 18.004 11.9993C21.3129 11.9993 24.0033 14.6903 24.0033 17.9999C24.0033 21.3095 21.3049 24.0006 18.004 24.0006ZM29.7617 8.39247C29.7617 9.58939 28.798 10.5453 27.6094 10.5453C26.4127 10.5453 25.457 9.58136 25.457 8.39247C25.457 7.20359 26.4207 6.23963 27.6094 6.23963C28.798 6.23963 29.7617 7.20359 29.7617 8.39247ZM35.8735 10.5774C35.737 7.6936 35.0784 5.13911 32.9662 3.03446C30.862 0.929819 28.3081 0.271114 25.4249 0.12652C22.4533 -0.0421732 13.5467 -0.0421732 10.5751 0.12652C7.69994 0.263081 5.14601 0.921786 3.0338 3.02643C0.921584 5.13108 0.271054 7.68557 0.126492 10.5694C-0.042164 13.5416 -0.042164 22.4502 0.126492 25.4224C0.263023 28.3063 0.921584 30.8608 3.0338 32.9654C5.14601 35.0701 7.69191 35.7288 10.5751 35.8734C13.5467 36.042 22.4533 36.042 25.4249 35.8734C28.3081 35.7368 30.862 35.0781 32.9662 32.9654C35.0704 30.8608 35.7289 28.3063 35.8735 25.4224C36.0422 22.4502 36.0422 13.5497 35.8735 10.5774ZM32.0346 28.6115C31.4081 30.186 30.1954 31.399 28.6133 32.0336C26.2441 32.9734 20.6222 32.7566 18.004 32.7566C15.3858 32.7566 9.75594 32.9654 7.39476 32.0336C5.82064 31.407 4.60792 30.194 3.97345 28.6115C3.0338 26.2418 3.25064 20.6187 3.25064 17.9999C3.25064 15.3812 3.04183 9.75005 3.97345 7.38835C4.59989 5.81388 5.8126 4.6009 7.39476 3.96629C9.76397 3.02643 15.3858 3.24332 18.004 3.24332C20.6222 3.24332 26.2521 3.03446 28.6133 3.96629C30.1874 4.59287 31.4001 5.80585 32.0346 7.38835C32.9742 9.75808 32.7574 15.3812 32.7574 17.9999C32.7574 20.6187 32.9742 26.2498 32.0346 28.6115Z" fill="#2F2E30"/>
</svg>
