<svg width="36" height="36" viewBox="0 0 36 36" fill="none" xmlns="http://www.w3.org/2000/svg">
<path d="M4.26463 7.34443C4.30928 6.79101 4.1381 6.2376 3.81063 5.86241L0.454 0.759768V0H10.8886L18.9564 22.2959L26.0492 0H36V0.759768L33.1271 4.23031C32.8815 4.46481 32.755 4.85876 32.8071 5.24334V30.7565C32.755 31.1411 32.8815 31.5351 33.1271 31.7696L35.933 35.2401V35.9999H21.8143V35.2401L24.7244 31.6851C25.0072 31.3287 25.0072 31.2162 25.0072 30.6721V10.0552L16.9171 35.9342H15.823L6.41555 10.0552V27.3986C6.33368 28.1302 6.52719 28.8618 6.93653 29.3871L10.7174 35.1651V35.9248H0V35.1745L3.78086 29.3871C4.18276 28.8618 4.36882 28.1208 4.26463 27.3986V7.34443Z" fill="#2F2E30"/>
</svg>
